HIERARCHY
ROOT Hips
{
	OFFSET 0.00000 0.00000 0.00000
	CHANNELS 6 Xposition Yposition Zposition Yrotation Zrotation Xrotation 
	JOINT Lumbar
	{
		OFFSET 0 0 0
		CHANNELS 3 Zrotation Xrotation Yrotation
		JOINT Neck
		{
			OFFSET 0.00 0.2701 0.00
			CHANNELS 3 Zrotation Xrotation Yrotation
			End Site
			{
				OFFSET 0.00 0.1379 0.00
			}
		}
		JOINT RightShoulder
		{
			OFFSET 0.0119 0.2289 0.1181
			CHANNELS 3 Zrotation Xrotation Yrotation
			JOINT RightElbow
			{
				OFFSET 0.00 -0.1475 0.00
				CHANNELS 2 Zrotation Yrotation
				JOINT RightWrist
				{
					OFFSET 0.00 -0.1605 0.00
					CHANNELS 2 Zrotation Xrotation
					End Site
					{
						OFFSET 0.0040 -0.1068 0.0006
					}
				}
			}
		}
		JOINT LeftShoulder
		{
			OFFSET 0.0119 0.2289 -0.1181
			CHANNELS 3 Zrotation Xrotation Yrotation
			JOINT LeftElbow
			{
				OFFSET 0.00 -0.1475 0.00
				CHANNELS 2 Zrotation Yrotation
				JOINT LeftWrist
				{
					OFFSET 0.00 -0.1605 0.00
					CHANNELS 2 Zrotation Xrotation
					End Site
					{
						OFFSET 0.0040 -0.1068 -0.0006
					}
				}
			}
		}
	}
	JOINT RightHip
	{
		OFFSET 0.0316 -0.0424 0.0458
		CHANNELS 3 Zrotation Xrotation Yrotation
		JOINT RightKnee
		{
			OFFSET 0.00 -0.2438 0.00
			CHANNELS 1 Zrotation
			JOINT RightAnkle
			{
				OFFSET 0.00 -0.2449 0.00
				CHANNELS 3 Zrotation Xrotation Yrotation
				End Site
				{
					OFFSET 0.1237 -0.0542 0.0051
				}
			}
		}
	}
	JOINT LeftHip
	{
		OFFSET 0.0316 -0.0424 -0.0458
		CHANNELS 3 Zrotation Xrotation Yrotation
		JOINT LeftKnee
		{
			OFFSET 0.00 -0.2438 0.00
			CHANNELS 1 Zrotation
			JOINT LeftAnkle
			{
				OFFSET 0.00 -0.2449 0.00
				CHANNELS 3 Zrotation Xrotation Yrotation
				End Site
				{
					OFFSET 0.1237 -0.0542 -0.0051
				}
			}
		}
	}
}
MOTION
Frames: 32
Frame Time: 0.02
1e-05 0.57926 -0 139.10558 0 -3.56957 0.91688 6.49207 -2.05022 -55.2243 -7.9122 -4.7233 52.39964 -6.14817 -8.57678 9.36951 82.66603 0.15681 -3.3393 49.36284 25.93692 -18.88875 15.41344 -82.21069 -3.97494 3.54136 -5.10567 9.22475 5.34928 -6.38271 -10.19086 -1.89437 -14.97842 -0.01553 8.84233 9.6339 -13.65897 -4.31883 2.88417 12.39082
-0.00282 0.57941 -0.00057 138.84469 0 -3.58151 1.43116 6.39533 -2.47736 -55.0026 -7.76324 -4.43244 52.34637 -6.37625 -8.57934 9.43858 82.61747 0.09703 -3.39469 49.31067 25.69233 -18.81741 15.3814 -82.13426 -3.97747 3.53311 -5.32607 9.00021 3.91437 -6.31908 -10.13147 -1.89651 -13.35516 -1.05942 8.70954 11.06099 -12.16588 -4.58697 2.76558 11.06696
-0.00565 0.57955 -0.00113 138.58395 0 -3.5938 1.9429 6.29954 -2.90157 -54.78025 -7.61378 -4.14274 52.29121 -6.6039 -8.57952 9.50754 82.56931 0.03821 -3.4497 49.25695 25.44761 -18.74475 15.34977 -82.05832 -3.98039 3.52529 -5.5452 8.777 2.49819 -6.25646 -10.07283 -1.89839 -11.75031 -2.0982 8.57635 12.48018 -10.68078 -4.85323 2.6478 9.75291
-0.00846 0.57968 -0.00167 138.32178 0 -3.6078 2.44925 6.20711 -3.31762 -54.55407 -7.46197 -3.85546 52.22946 -6.83102 -8.56958 9.57727 82.52241 -0.01745 -3.50407 49.19814 25.20165 -18.66658 15.31971 -81.98369 -3.98511 3.51894 -5.76067 8.55879 1.15883 -6.19826 -10.01766 -1.89842 -10.21969 -3.12673 8.44085 13.8825 -9.21186 -5.11558 2.53197 8.46488
-0.01131 0.57984 -0.0023 138.06779 0 -3.613 2.9839 6.09748 -3.77617 -54.34929 -7.32396 -3.55615 52.20444 -7.05973 -8.61247 9.64358 82.46899 -0.08997 -3.56227 49.16823 24.96427 -18.6182 15.28162 -81.90225 -3.98059 3.50459 -5.99463 8.31632 -0.56847 -6.11784 -9.94539 -1.90725 -8.31549 -4.20957 8.31823 15.37513 -7.65577 -5.39985 2.40564 7.03862
-0.01409 0.57995 -0.00274 137.79637 0 -3.63662 3.4583 6.02395 -4.1449 -54.09868 -7.15596 -3.28206 52.10051 -7.28568 -8.5441 9.71663 82.42933 -0.12666 -3.61201 49.07592 24.70763 -18.50647 15.26037 -81.83522 -3.99542 3.50734 -6.18987 8.12388 -1.48641 -6.08368 -9.90851 -1.89811 -7.19002 -5.17643 8.16806 16.67462 -6.28658 -5.63669 2.30179 5.9064
-0.01671 0.57994 -0.00263 137.47044 0 -3.71526 3.77184 6.05523 -4.26218 -53.71586 -6.90513 -3.07673 51.77768 -7.50335 -8.15133 9.81457 82.42875 -0.0626 -3.6414 48.81277 24.39971 -18.2132 15.28817 -81.80804 -4.06738 3.55749 -6.27426 8.08266 3e-05 -6.18844 -9.97928 -1.83154 -8.37892 -5.83828 7.93861 17.46272 -5.4067 -5.75072 2.25825 5.5831
-0.01926 0.57987 -0.00231 137.12773 0 -3.81191 4.02361 6.12217 -4.28952 -53.28712 -6.62362 -2.8967 51.37466 -7.7189 -7.64934 9.91826 82.44189 0.03732 -3.66168 48.48578 24.07142 -17.85682 15.33235 -81.79535 -4.15809 3.62481 -6.3202 8.0897 2.27642 -6.33821 -10.08422 -1.74804 -10.32749 -6.3807 7.68175 18.05252 -4.7199 -5.81529 2.23771 5.55721
-0.02184 0.57983 -0.00209 136.79643 0 -3.89757 4.30075 6.1694 -4.36039 -52.88287 -6.35598 -2.70555 51.00897 -7.93571 -7.20749 10.01538 82.44803 0.11979 -3.68423 48.18698 23.75113 -17.53329 15.36766 -81.776 -4.23811 3.68436 -6.38661 8.06592 4.08022 -6.45998 -10.16697 -1.67747 -11.82049 -6.96904 7.43915 18.71989 -3.96052 -5.89756 2.20772 5.39644
-0.02445 0.57978 -0.00188 136.44918 0 -3.99465 4.59031 6.23098 -4.4201 -52.46445 -6.08918 -2.51324 50.64093 -8.14996 -6.71982 10.12921 82.45733 0.20729 -3.7148 47.89272 23.43717 -17.1924 15.40977 -81.75707 -4.328 3.74423 -6.44104 8.07893 6.35371 -6.61264 -10.27711 -1.58543 -13.76956 -7.59373 7.18874 19.4407 -3.13542 -6.00081 2.17342 5.23311
-0.02697 0.57973 -0.00159 136.13118 0 -4.07274 4.83802 6.27168 -4.48161 -52.06329 -5.81272 -2.32886 50.25702 -8.37063 -6.30356 10.20956 82.46338 0.29265 -3.72633 47.57253 23.10393 -16.87241 15.44062 -81.74059 -4.40087 3.80696 -6.51041 8.02769 7.84863 -6.71282 -10.33922 -1.53327 -14.96113 -8.11286 6.94837 20.00236 -2.49541 -6.0476 2.15366 5.14757
-0.02923 0.57968 -0.00119 135.89749 0 -4.08964 4.99619 6.24135 -4.57063 -51.73247 -5.52234 -2.16438 49.86372 -8.59612 -6.09394 10.19654 82.45639 0.36494 -3.68906 47.20768 22.73342 -16.62792 15.44479 -81.72842 -4.43057 3.87811 -6.63773 7.7793 6.89689 -6.64748 -10.25258 -1.60244 -13.77197 -8.3833 6.73976 20.18035 -2.29775 -5.95978 2.16751 5.18787
-0.03141 0.57963 -0.00072 135.6936 0 -4.08768 5.11205 6.18961 -4.66433 -51.41849 -5.22243 -2.00626 49.45454 -8.83065 -5.96275 10.14961 82.4458 0.43358 -3.63273 46.81694 22.34239 -16.40621 15.43535 -81.71801 -4.44117 3.9506 -6.7798 7.46607 5.15372 -6.52983 -10.11789 -1.7111 -11.81329 -8.54939 6.54261 20.204 -2.28312 -5.81543 2.1954 5.29901
-0.03363 0.57958 -0.00026 135.47684 0 -4.09715 5.24054 6.1508 -4.75568 -51.08926 -4.92331 -1.84241 49.04281 -9.06987 -5.80751 10.11779 82.43734 0.50279 -3.58403 46.43043 21.9532 -16.17255 15.42685 -81.70613 -4.4547 4.01951 -6.91068 7.18769 3.84079 -6.4421 -10.01026 -1.79697 -10.27495 -8.75409 6.34202 20.29321 -2.19945 -5.69061 2.21739 5.38853
-0.03583 0.57953 0.0001 135.258 0 -4.09499 5.39601 6.09991 -4.84533 -50.79037 -4.63763 -1.69123 48.66915 -9.27193 -5.60124 10.08712 82.42725 0.57772 -3.53906 46.07295 21.59382 -15.94344 15.44172 -81.69764 -4.49217 4.10193 -7.06025 6.88822 2.25747 -6.3289 -9.88165 -1.90237 -8.46606 -8.99081 6.13329 20.39362 -2.0651 -5.58893 2.23797 5.44453
-0.03806 0.57949 0.0007 135.04913 0 -4.11257 5.48445 6.06841 -4.94022 -50.43304 -4.32263 -1.51507 48.21393 -9.55348 -5.51914 10.04632 82.41957 0.63955 -3.4823 45.65038 21.16908 -15.7111 15.40365 -81.68226 -4.47623 4.15586 -7.17354 6.6167 1.03909 -6.2571 -9.78502 -1.97711 -7.02664 -9.1389 5.94423 20.43818 -2.0744 -5.42771 2.26475 5.58238
-0.04039 0.57949 0.00192 134.87451 0 -4.18728 5.41139 6.09696 -5.05407 -49.90907 -3.92446 -1.26613 47.53391 -10.05318 -5.77963 9.98252 82.41879 0.66452 -3.39442 45.04888 20.55769 -15.46399 15.22966 -81.64813 -4.30685 4.13448 -7.19399 6.43804 1.01898 -6.30162 -9.78705 -1.95378 -6.80443 -9.05671 5.81023 20.35372 -2.45991 -5.10365 2.30318 5.93576
-0.04274 0.57951 0.00339 134.70619 0 -4.28284 5.26989 6.14514 -5.17253 -49.32612 -3.49804 -0.99203 46.77355 -10.63244 -6.15909 9.91044 82.42059 0.67643 -3.29611 44.38418 19.88346 -15.21294 15.00156 -81.60692 -4.08623 4.08377 -7.17512 6.28975 1.3904 -6.39203 -9.82297 -1.89897 -6.97536 -8.89134 5.69524 20.22173 -2.97852 -4.72401 2.34762 6.36651
-0.04507 0.57952 0.00475 134.52614 0 -4.37002 5.15172 6.18353 -5.28553 -48.77115 -3.08783 -0.73089 46.05248 -11.17469 -6.47262 9.84406 82.42158 0.69529 -3.20456 43.7523 19.24534 -14.96455 14.79349 -81.56833 -3.89599 4.04375 -7.16787 6.12714 1.58018 -6.46752 -9.84415 -1.86115 -6.95647 -8.77227 5.56922 20.12076 -3.41881 -4.37827 2.39058 6.75556
-0.04744 0.57952 0.00606 134.38533 0 -4.45172 5.06603 6.22562 -5.41249 -48.21183 -2.66339 -0.46387 45.31851 -11.72075 -6.84013 9.76762 82.42098 0.71021 -3.10328 43.10195 18.57437 -14.71437 14.60387 -81.53193 -3.6753 4.01421 -7.18939 5.96358 1.75713 -6.51361 -9.86104 -1.81354 -6.95744 -8.6147 5.45313 19.97452 -3.9394 -3.9946 2.42885 7.17401
-0.04973 0.57955 0.00755 134.16291 0 -4.55029 4.89549 6.26398 -5.51189 -47.64729 -2.26155 -0.20263 44.59324 -12.27781 -7.12089 9.7115 82.4243 0.72973 -3.0207 42.47568 17.95746 -14.46528 14.36356 -81.48976 -3.50594 3.95672 -7.13909 5.81117 2.06571 -6.63571 -9.89533 -1.77813 -7.02141 -8.51756 5.3214 19.91333 -4.32381 -3.67679 2.47801 7.54975
-0.05185 0.57964 0.00946 133.72158 0 -4.6881 4.52074 6.29536 -5.52992 -47.08361 -1.93305 0.03312 43.90635 -12.84428 -7.1458 9.70608 82.43814 0.76961 -2.9866 41.92989 17.50295 -14.23195 13.99324 -81.42897 -3.49242 3.82187 -6.9193 5.67352 2.63054 -6.93093 -9.97103 -1.78567 -7.15679 -8.62014 5.13639 20.10008 -4.2825 -3.56066 2.55683 7.77774
-0.05389 0.57976 0.01155 133.19602 0 -4.84271 4.06081 6.32069 -5.52082 -46.5168 -1.62759 0.26297 43.2323 -13.41919 -7.07631 9.72292 82.45577 0.81374 -2.97282 41.41131 17.10562 -13.99724 13.57453 -81.36331 -3.53211 3.66125 -6.6243 5.54838 3.32061 -7.3072 -10.06285 -1.80612 -7.34706 -8.7846 4.93609 20.37502 -4.1019 -3.51176 2.64614 7.9614
-0.05593 0.57986 0.01357 132.70391 0 -4.99113 3.63123 6.34386 -5.52686 -45.95036 -1.30895 0.49762 42.55566 -13.99131 -7.04153 9.73466 82.47149 0.85296 -2.95362 40.8809 16.68359 -13.75572 13.18014 -81.30293 -3.54654 3.51727 -6.35187 5.42293 3.96444 -7.66193 -10.14663 -1.8194 -7.52004 -8.91308 4.7461 20.60884 -3.99522 -3.42841 2.72985 8.17249
-0.05811 0.57996 0.01555 132.23339 0 -5.134 3.23407 6.38934 -5.52121 -45.38498 -1.00064 0.72367 41.86159 -14.56228 -7.04639 9.72507 82.48816 0.90425 -2.91806 40.34445 16.25358 -13.54677 12.77379 -81.22985 -3.56382 3.35153 -6.12972 5.27407 4.57536 -7.94906 -10.2352 -1.83699 -7.67357 -9.07178 4.54198 20.8435 -3.84805 -3.35993 2.81722 8.35684
-0.05998 0.58007 0.01764 131.6966 0 -5.29236 2.75062 6.38553 -5.53339 -44.8191 -0.67676 0.96653 41.20909 -15.13601 -6.94362 9.7651 82.50361 0.93163 -2.92138 39.82981 15.855 -13.26807 12.38184 -81.18154 -3.58837 3.22528 -5.78221 5.17873 5.28082 -8.40144 -10.3164 -1.84921 -7.87607 -9.1833 4.36416 21.10026 -3.75088 -3.27665 2.89948 8.58376
-0.06105 0.5802 0.02 131.00808 0 -5.48771 2.0462 6.25695 -5.60188 -44.23834 -0.30342 1.25148 40.6584 -15.71967 -6.57618 9.93817 82.5157 0.89193 -3.02817 39.35269 15.52615 -12.80987 12.03939 -81.20838 -3.62123 3.21533 -5.13585 5.20957 6.20364 -9.23881 -10.37974 -1.84237 -8.19521 -9.15085 4.25656 21.37703 -3.81993 -3.14143 2.96408 8.9522
-0.06181 0.58033 0.02246 130.25417 0 -5.69839 1.25962 6.07728 -5.68937 -43.66017 0.08613 1.55431 40.1511 -16.30444 -6.10199 10.15974 82.52632 0.82835 -3.17286 38.8999 15.22782 -12.27835 11.71368 -81.25933 -3.65962 3.24592 -4.36134 5.29712 7.21654 -10.24778 -10.43367 -1.83006 -8.56023 -9.06935 4.17714 21.67655 -3.94403 -2.98855 3.02326 9.36217
-0.0627 0.58046 0.02485 129.52261 0 -5.90288 0.51241 5.91409 -5.76762 -43.0904 0.46755 1.85285 39.63114 -16.88563 -5.669 10.35882 82.53685 0.77541 -3.30006 38.44686 14.91792 -11.77308 11.38212 -81.29563 -3.69489 3.25756 -3.62597 5.37081 8.19655 -11.21335 -10.48763 -1.82109 -8.90645 -9.00929 4.08865 21.97908 -4.04671 -2.84019 3.0856 9.74416
-0.06366 0.58061 0.02733 128.81745 0 -6.10422 -0.24936 5.77809 -5.84665 -42.47987 0.85132 2.13579 39.08288 -17.4808 -5.26087 10.56251 82.55033 0.7224 -3.43069 37.94919 14.60041 -11.30093 11.04184 -81.34729 -3.73444 3.27076 -2.96607 5.3949 9.15255 -12.04105 -10.56038 -1.80886 -9.24853 -8.95328 3.98342 22.22966 -4.13141 -2.70785 3.14563 10.16313
-0.06439 0.58071 0.02964 128.04508 0 -6.31611 -0.9955 5.57474 -5.92997 -41.95512 1.23444 2.45454 38.60235 -18.04619 -4.78034 10.7654 82.55774 0.66521 -3.56091 37.54983 14.30505 -10.73823 10.72377 -81.37284 -3.76583 3.29035 -2.12267 5.53529 10.17155 -13.18898 -10.59117 -1.80206 -9.60643 -8.87844 3.92047 22.59099 -4.26593 -2.53846 3.20874 10.51543
-0.06454 0.58066 0.03156 127.0853 0 -6.54832 -1.70932 5.18663 -6.01156 -41.66399 1.6109 2.87601 38.3089 -18.53554 -4.09726 10.97457 82.54461 0.59028 -3.6975 37.41605 14.06537 -9.98108 10.4688 -81.31943 -3.77157 3.32026 -0.7786 5.98495 11.3987 -15.23205 -10.51167 -1.81061 -10.02128 -8.74657 3.96301 23.26709 -4.54581 -2.25888 3.28407 10.67334
